<?xml version="1.0" encoding="UTF-8"?>
<!DOCTYPE svg PUBLIC "-//W3C//DTD SVG 1.1//EN" "http://www.w3.org/Graphics/SVG/1.1/DTD/svg11.dtd">
<!-- Creator: CorelDRAW 2021.5 -->
<svg xmlns="http://www.w3.org/2000/svg" xml:space="preserve" width="73.4261mm" height="61.423mm" version="1.1" style="shape-rendering:geometricPrecision; text-rendering:geometricPrecision; image-rendering:optimizeQuality; fill-rule:evenodd; clip-rule:evenodd"
viewBox="0 0 7342.6 6142.29"
 xmlns:xlink="http://www.w3.org/1999/xlink"
 xmlns:xodm="http://www.corel.com/coreldraw/odm/2003">
 <defs>
  <style type="text/css">
   <![CDATA[
    .fil1 {fill:#FEFEFE;fill-rule:nonzero}
    .fil0 {fill:#782C7E;fill-rule:nonzero}
   ]]>
  </style>
 </defs>
 <g id="!;>9_x0020_1">
  <metadata id="CorelCorpID_0Corel-Layer"/>
  <polygon class="fil0" points="7342.6,4110.93 5321.04,6142.29 -0,6142.22 -0,3229.71 3229.76,0 "/>
  <path class="fil1" d="M2819.26 4545.72l30.4 0 0 122.09c7.98,-12.2 18.12,-21.23 30.44,-26.99 12.27,-5.83 26.45,-8.72 42.35,-8.72 13.25,0 25.4,2.23 36.47,6.68 11.02,4.46 20.55,11.08 28.55,19.87 7.99,8.79 14.16,19.81 18.62,32.94 4.46,13.06 6.69,28.34 6.69,45.63l0 19.62c0,17.02 -2.23,32.06 -6.69,45.19 -4.46,13.2 -10.63,24.22 -18.62,33.13 -8,8.92 -17.53,15.66 -28.55,20.12 -11.07,4.52 -23.22,6.75 -36.47,6.75 -16.83,0 -31.75,-3.35 -44.63,-10.09 -12.93,-6.68 -23.41,-16.9 -31.39,-30.66l-3.65 37.59 -23.52 0 0 -313.15zm96.33 288.57c19.94,0 35.91,-6.37 47.91,-19.01 11.95,-12.69 17.95,-32.13 17.95,-58.44l0 -19.62c0,-26.01 -6.05,-45.38 -18.2,-58.19 -12.12,-12.83 -28.04,-19.27 -47.66,-19.27 -9.55,0 -18.32,1.73 -26.32,5.14 -7.99,3.47 -14.85,8.49 -20.68,15.06 -5.81,6.54 -10.46,14.6 -13.86,24.13 -3.35,9.54 -5.07,20.56 -5.07,33.13l0 19.62c0,12.57 1.72,23.66 5.07,33.38 3.4,9.65 8.05,17.76 13.86,24.13 5.83,6.44 12.69,11.34 20.68,14.79 8,3.43 16.77,5.15 26.32,5.15z"/>
  <polygon class="fil1" points="3169.44,4859.31 3074.04,4635.2 3108.16,4635.2 3186.04,4822.23 3258.42,4635.2 3290.6,4635.2 3166.23,4948.34 3133.98,4948.34 "/>
  <polygon class="fil1" points="3496.18,4635.19 3528.44,4635.19 3584.65,4821.74 3639,4635.19 3675.89,4635.19 3735.33,4821.74 3787.4,4635.19 3818.73,4635.19 3754.22,4858.87 3717.38,4858.87 3657.46,4670.04 3602.16,4858.87 3565.27,4858.87 "/>
  <path class="fil1" d="M3984.38 4862.01c-15.06,0 -28.73,-2.35 -41,-6.93 -12.32,-4.65 -22.77,-11.4 -31.32,-20.37 -8.6,-8.92 -15.23,-19.94 -19.87,-32.87 -4.58,-12.95 -6.88,-27.99 -6.88,-44.95l0 -19.69c0,-16.72 2.35,-31.64 7.13,-44.7 4.75,-13.19 11.44,-24.21 20.06,-33.13 8.6,-8.97 18.93,-15.78 31.13,-20.36 12.07,-4.65 25.69,-6.93 40.75,-6.93 15.04,0 28.66,2.28 40.79,6.93 12.14,4.58 22.48,11.39 31.08,20.36 8.61,8.92 15.3,19.94 20.05,33.13 4.78,13.06 7.13,27.98 7.13,44.7l0 18.32 -166.79 0c0,26.26 6.12,45.95 18.44,59.06 12.27,13.13 28.73,19.69 49.3,19.69 19.06,0 33.55,-3.83 43.52,-11.64 10.02,-7.74 17.32,-17.46 21.9,-29.09l31.33 0c-2.09,9.6 -5.76,18.51 -10.83,26.86 -5.07,8.36 -11.58,15.61 -19.57,21.68 -7.98,6.12 -17.51,10.95 -28.6,14.55 -11,3.58 -23.64,5.38 -37.75,5.38zm0 -202.2c-19.64,0 -35.49,6 -47.49,18.08 -11.95,12.07 -18.71,29.34 -20.25,51.7l135.46 0c-1.54,-23.29 -8.35,-40.75 -20.49,-52.32 -12.13,-11.63 -27.86,-17.46 -47.23,-17.46z"/>
  <path class="fil1" d="M4251.4 4862.01c-28.22,0 -49.28,-6.07 -63.09,-18.14 -13.87,-12.08 -22.03,-28.66 -24.45,-49.84l31.32 0c2.48,13.69 7.67,23.83 15.68,30.39 7.98,6.57 21.48,9.85 40.54,9.85 21.23,0 35.85,-3.09 44.01,-9.41 8.18,-6.25 12.2,-15.04 12.2,-26.37 0,-9.85 -3.41,-17.34 -10.34,-22.59 -6.93,-5.21 -15.53,-9.42 -25.82,-12.51 -10.26,-3.16 -21.41,-5.88 -33.43,-8.3 -11.95,-2.36 -23.09,-5.81 -33.36,-10.27 -10.34,-4.46 -18.88,-10.65 -25.81,-18.59 -6.94,-7.91 -10.34,-18.88 -10.34,-32.87 0,-8.67 1.67,-16.7 5.07,-24.14 3.34,-7.5 8.48,-13.94 15.41,-19.5 6.88,-5.51 15.55,-9.85 26.01,-12.94 10.46,-3.15 22.6,-4.7 36.4,-4.7 26.13,0 45.87,5.88 59.24,17.64 13.32,11.83 21.24,27.06 23.71,45.87l-31.32 0c-2.48,-11.33 -7.43,-20.13 -14.97,-26.37 -7.57,-6.32 -19.76,-9.41 -36.66,-9.41 -19.06,0 -32.38,3.04 -40.05,9.16 -7.74,6.12 -11.58,14.23 -11.58,24.39 0,9.23 3.47,16.1 10.4,20.55 6.93,4.46 15.53,8.11 25.82,10.97 10.26,2.85 21.41,5.44 33.43,7.79 11.95,2.48 23.09,6.01 33.36,10.78 10.28,4.77 18.88,11.39 25.82,19.94 6.88,8.47 10.33,20.18 10.33,35.1 0,18.44 -7.05,33.67 -21.16,45.62 -14.11,11.96 -36.28,17.9 -66.37,17.9z"/>
  <path class="fil1" d="M4509.9 4858.89c-19.99,0 -35.1,-5.02 -45.38,-14.99 -10.27,-9.96 -15.41,-24.64 -15.41,-44.08l0 -137.75 -41.49 0 0 -26.87 41.49 0 0 -62.65 30.39 0 0 62.65 61.73 0 0 26.87 -61.73 0 0 134.15c0,12.58 2.85,21.68 8.55,27.31 5.63,5.7 14.18,8.48 25.57,8.48l32.19 0 0 26.88 -35.91 0z"/>
  <path class="fil1" d="M4687.29 4858.89c-19.39,0 -34.19,-5.02 -44.45,-14.99 -10.36,-9.96 -15.48,-24.64 -15.48,-44.08l0 -254.08 30.45 0 0 250.48c0,12.58 2.74,21.68 8.3,27.31 5.51,5.7 13.81,8.48 24.88,8.48l14.75 0 0 26.88 -18.45 0z"/>
  <path class="fil1" d="M4805.96 4595.82c-6.12,0 -11.27,-2.05 -15.41,-6.07 -4.16,-4.02 -6.26,-8.98 -6.26,-14.99 0,-5.93 2.1,-10.89 6.26,-14.91 4.14,-4.02 9.29,-6.08 15.41,-6.08 6.13,0 11.27,2.06 15.41,6.08 4.16,4.02 6.26,8.98 6.26,14.91 0,6.01 -2.1,10.97 -6.26,14.99 -4.14,4.02 -9.28,6.07 -15.41,6.07zm-15.23 39.37l30.39 0 0 223.68 -30.39 0 0 -223.68z"/>
  <path class="fil1" d="M4927.58 4635.19l23.52 0 3.65 36.66c7.68,-12.81 18.07,-22.61 31.15,-29.47 13,-6.88 28.16,-10.35 45.38,-10.35 26.43,0 47.22,7.81 62.4,23.29 15.22,15.53 22.84,38.62 22.84,69.33l0 134.22 -30.45 0 0 -134.22c0,-21.72 -5.21,-38.01 -15.6,-48.78 -10.48,-10.71 -25.08,-16.1 -43.77,-16.1 -10.48,0 -19.94,1.62 -28.36,4.71 -8.5,3.16 -15.67,7.54 -21.68,13.18 -6,5.7 -10.65,12.58 -13.86,20.62 -3.23,8.05 -4.83,16.85 -4.83,26.37l0 134.22 -30.39 0 0 -223.68z"/>
  <path class="fil1" d="M5306.03 4862.01c-15.04,0 -28.72,-2.35 -40.99,-6.93 -12.32,-4.65 -22.78,-11.4 -31.33,-20.37 -8.6,-8.92 -15.21,-19.94 -19.86,-32.87 -4.58,-12.95 -6.88,-27.99 -6.88,-44.95l0 -19.69c0,-16.72 2.35,-31.64 7.12,-44.7 4.78,-13.19 11.46,-24.21 20.06,-33.13 8.6,-8.97 18.95,-15.78 31.15,-20.36 12.06,-4.65 25.69,-6.93 40.73,-6.93 15.04,0 28.66,2.28 40.81,6.93 12.12,4.58 22.46,11.39 31.08,20.36 8.6,8.92 15.28,19.94 20.06,33.13 4.75,13.06 7.1,27.98 7.1,44.7l0 18.32 -166.79 0c0,26.26 6.15,45.95 18.46,59.06 12.25,13.13 28.73,19.69 49.28,19.69 19.06,0 33.56,-3.83 43.53,-11.64 10.02,-7.74 17.34,-17.46 21.92,-29.09l31.32 0c-2.1,9.6 -5.75,18.51 -10.84,26.86 -5.08,8.36 -11.57,15.61 -19.55,21.68 -7.99,6.12 -17.54,10.95 -28.61,14.55 -11.02,3.58 -23.66,5.38 -37.77,5.38zm0 -202.2c-19.62,0 -35.48,6 -47.48,18.08 -11.96,12.07 -18.7,29.34 -20.26,51.7l135.47 0c-1.55,-23.29 -8.36,-40.75 -20.48,-52.32 -12.15,-11.63 -27.87,-17.46 -47.25,-17.46z"/>
  <polygon class="fil1" points="2824.37,1935.18 2824.37,1935.18 591.49,4168.05 730.41,4306.99 2824.37,2213.05 2824.37,4027.27 2056.17,3259.03 1917.25,3397.96 2824.37,4305.06 3027.06,4305.06 3027.06,1935.18 "/>
  <path class="fil1" d="M3229.76 3726.1l0 294.01c208.33,183.45 481.05,294.57 779.59,294.57 278.21,0 533.97,-96.57 736.16,-258.15l-143.01 -142.96c-164.81,126.42 -370.28,201.52 -593.15,201.52 -317.67,0 -600.06,-152.49 -779.59,-388.99z"/>
  <path class="fil1" d="M4009.32 1929.16c-298.54,0 -571.2,111.2 -779.59,294.5l0 294.08c179.6,-236.5 461.92,-388.98 779.59,-388.98 542.51,0 982.26,444.65 982.26,993.18 0,180.09 -47.66,348.86 -130.57,494.54l-355.48 -355.55 -138.94 138.92 907.12 907.12 138.94 -138.92 -404.47 -404.42c117.76,-185.23 186.1,-405.44 186.1,-641.69 0,-658.74 -530.51,-1192.78 -1184.96,-1192.78z"/>
 </g>
</svg>
